<svg width="170" height="29" viewBox="0 0 170 29" fill="none" xmlns="http://www.w3.org/2000/svg">
<path d="M3.17 17.35C3.8 18.91 5.36 19.63 6.32 19.63C7.82 19.63 8.78 19.06 8.78 18.07C8.78 17.17 7.46 16.75 5.99 16.24C4.04 15.55 1.28 14.62 1.28 11.86C1.28 9.34 3.59 7.81 6.53 7.81C8.3 7.81 10.94 8.83 11.66 11.41L8.99 12.37C8.51 10.78 7.22 10.54 6.53 10.54C5.27 10.54 4.46 11.05 4.46 11.86C4.46 12.76 5.69 13.12 7.22 13.66C9.26 14.38 11.96 15.31 11.96 18.04C11.96 20.65 9.65 22.36 6.32 22.36C4.13 22.36 1.73 20.98 0.68 18.79L3.17 17.35ZM20.4048 22.33C16.3548 22.33 13.5048 19.36 13.5048 15.16C13.5048 10.93 16.3548 7.96 20.4048 7.96C24.8448 7.96 26.2548 11.59 26.3448 11.83C27.2148 13.87 26.9448 16.15 26.9448 16.39H16.6248C16.9848 18.31 18.6048 19.63 20.4048 19.63C22.7748 19.63 23.7348 18.25 23.9748 17.83L26.5248 18.97C25.8348 20.59 23.8248 22.33 20.4048 22.33ZM16.6248 13.87H23.9448C23.6448 12.1 22.6248 10.66 20.4048 10.66C18.4848 10.66 16.9848 12.01 16.6248 13.87ZM32.3375 16.12C32.3375 18.31 33.6275 19.66 35.5175 19.66C37.5275 19.66 38.9075 18.34 38.8775 16.15V7.96H42.0875V22.27H38.8775V20.62C37.9775 21.73 36.5075 22.39 35.0975 22.39C31.6475 22.39 29.1575 19.9 29.1575 16.24V7.96H32.3375V16.12ZM54.4283 14.38C54.4283 12.1 53.2583 10.72 51.2783 10.72C49.3283 10.75 47.8283 12.28 47.8583 14.38V22.27H44.6783V7.96H47.8583V9.91C48.7583 8.8 50.2883 7.99 51.6683 7.99C54.3683 7.99 57.6083 9.76 57.6083 14.26V22.27H54.4283V14.38ZM66.2968 19.63C68.5768 19.63 70.2268 17.62 70.2268 15.13C70.2268 12.7 68.5768 10.66 66.2968 10.66C64.0468 10.66 62.5168 12.43 62.5168 15.13C62.5168 17.86 64.0468 19.63 66.2968 19.63ZM59.3368 15.16C59.3368 10.96 62.1568 7.93 66.1168 7.93C67.5868 7.93 69.2368 8.68 70.2268 10.03V7.93H73.4068V21.19C73.4068 25.27 70.6468 28.63 66.2668 28.63C63.8668 28.63 61.5568 27.64 60.1468 25.3L62.6668 23.62C63.7168 25.15 64.7368 25.81 66.2668 25.81C68.8168 25.81 70.2268 23.8 70.2268 21.46V20.2C69.1168 21.61 67.4668 22.36 66.1168 22.36C62.1568 22.36 59.3368 19.36 59.3368 15.16ZM81.339 19.33C82.449 19.33 83.739 18.76 84.549 17.86L86.739 20.05C85.509 21.4 83.259 22.36 81.459 22.36C77.199 22.36 74.199 19.36 74.199 15.16C74.199 10.93 77.199 7.93 81.459 7.93C83.349 7.93 85.449 8.89 86.739 10.27L84.549 12.43C83.739 11.53 82.449 10.96 81.339 10.96C78.969 10.96 77.379 12.61 77.379 15.16C77.379 17.68 78.969 19.33 81.339 19.33ZM97.7708 14.44C97.7708 12.07 96.6308 10.57 94.9208 10.57C92.9408 10.57 91.4108 12.43 91.4108 14.74V22H88.2308V0.819999H91.4108V9.64C92.2808 8.53 93.6908 7.81 94.9208 7.81C98.4608 7.81 100.981 10.45 100.981 14.08V22H97.7708V14.44ZM109.752 22.39C105.792 22.39 102.972 19.39 102.972 15.19C102.972 10.99 105.792 7.99 109.752 7.99C111.162 7.99 112.722 8.65 113.862 10V7.96H117.042V22.27H113.862V20.35C112.722 21.79 111.162 22.39 109.752 22.39ZM106.152 15.19C106.152 17.89 107.682 19.69 109.962 19.69C112.062 19.69 113.862 17.8 113.892 15.19C113.862 12.58 112.062 10.69 109.962 10.69C107.682 10.69 106.152 12.46 106.152 15.19ZM129.194 14.38C129.194 12.1 128.024 10.72 126.044 10.72C124.094 10.75 122.594 12.28 122.624 14.38V22.27H119.444V7.96H122.624V9.91C123.524 8.8 125.054 7.99 126.434 7.99C129.134 7.99 132.374 9.76 132.374 14.26V22.27H129.194V14.38Z" fill="#EEEEEE"/>
<path d="M140.259 0.939999H141.699V22H140.259V0.939999ZM149.83 22.06C146.05 22.06 143.41 19.21 143.41 15.13C143.41 11.05 146.05 8.14 149.83 8.14C154.06 8.14 155.2 11.65 155.29 11.89C156.01 13.6 155.89 15.52 155.89 15.7H144.88C145.03 18.64 147.04 20.77 149.83 20.77C153.19 20.77 154 18.52 154.12 18.31L155.29 18.94C154.63 20.44 152.95 22.06 149.83 22.06ZM144.88 14.38H154.45C154.36 11.92 152.86 9.34 149.83 9.43C147.04 9.43 145.03 11.44 144.88 14.38ZM163.769 22.06C159.989 22.06 157.349 19.21 157.349 15.13C157.349 11.05 159.989 8.14 163.769 8.14C167.999 8.14 169.139 11.65 169.229 11.89C169.949 13.6 169.829 15.52 169.829 15.7H158.819C158.969 18.64 160.979 20.77 163.769 20.77C167.129 20.77 167.939 18.52 168.059 18.31L169.229 18.94C168.569 20.44 166.889 22.06 163.769 22.06ZM158.819 14.38H168.389C168.299 11.92 166.799 9.34 163.769 9.43C160.979 9.43 158.969 11.44 158.819 14.38Z" fill="#DD003E"/>
</svg>
